<svg id="SvgjsSvg1000" xmlns="http://www.w3.org/2000/svg" version="1.1" xmlns:xlink="http://www.w3.org/1999/xlink" xmlns:svgjs="http://svgjs.com/svgjs" width="120" height="36" viewBox="0 0 120 36"><title>Fill 1</title><desc>Created with Avocode.</desc><defs id="SvgjsDefs1001"></defs><path id="SvgjsPath1007" d="M213.54 58.38V52.330000000000005H185.76999999999998V58.38H195.60999999999999V76.41H203.70999999999998V58.379999999999995ZM175.51 76.41H183.60999999999999V52.33H175.21999999999997L163.93999999999997 66.9V52.330000000000005H155.83999999999997V76.41H163.64999999999998L175.51 61.22ZM152.77 58.38C152.77 54.97 151.08 52.330000000000005 146.69 52.330000000000005H133.1V47.64000000000001H151.45V41.00000000000001H131.07C126.69 41.00000000000001 125 43.64000000000001 125 47.050000000000004V70.36C125 73.77 126.64 76.41 131.03 76.41H146.69C151.07999999999998 76.41 152.77 73.77 152.77 70.36ZM133.1 58.38H144.67V70.36H133.1Z " fill="#291800" fill-opacity="1" transform="matrix(1,0,0,1,-94,-41)"></path><path id="SvgjsPath1008" d="M122.06 58.38C122.06 54.97 120.37 52.330000000000005 115.98 52.330000000000005H100.07000000000001C95.69000000000001 52.330000000000005 94 54.970000000000006 94 58.38V70.36C94 73.77 95.69 76.41 100.07 76.41H115.97999999999999C120.36999999999999 76.41 122.05999999999999 73.77 122.05999999999999 70.36ZM102.1 58.38H113.96V70.36H102.1ZM113.93 41H122.02000000000001V49.07H113.93Z " fill="#f46f22" fill-opacity="1" transform="matrix(1,0,0,1,-94,-41)"></path></svg>